<svg width="18" height="16" viewBox="0 0 18 16" fill="none" xmlns="http://www.w3.org/2000/svg">
<path d="M2 1C2 0.447715 2.44772 0 3 0H15C15.5523 0 16 0.447715 16 1V15C16 15.5523 15.5523 16 15 16H3C2.44772 16 2 15.5523 2 15V1Z" fill="#9DA3B8"/>
<path d="M0 15C0 14.4477 0.447715 14 1 14H17C17.5523 14 18 14.4477 18 15C18 15.5523 17.5523 16 17 16H1C0.447716 16 0 15.5523 0 15Z" fill="#9DA3B8"/>
<rect x="4" y="3" width="10" height="2" rx="1" fill="white"/>
<rect x="7" y="12" width="4" height="4" fill="white"/>
<rect x="4" y="7" width="10" height="2" rx="1" fill="white"/>
</svg>
