<svg width="91" height="24" viewBox="0 0 91 24" fill="none" xmlns="http://www.w3.org/2000/svg">
<path d="M8.28978 13.2515L9.36403 15.1702L7.2328 16.3675C7.80487 16.8222 8.17325 17.5227 8.17325 18.3091C8.17325 19.6775 7.05973 20.7911 5.69118 20.7911C4.32289 20.7911 3.20948 19.6775 3.20948 18.3091C3.20948 16.9403 4.32289 15.827 5.69118 15.827C5.69709 15.827 5.70291 15.8279 5.70872 15.8279L5.39633 16.8969L8.76894 15.0024L6.91549 11.6925L6.62135 12.6997C6.31861 12.6482 6.00912 12.6176 5.69118 12.6176C2.55306 12.6176 0 15.1705 0 18.3091C0 21.4467 2.55306 24 5.69118 24C8.8293 24 11.3822 21.4467 11.3822 18.3091C11.3822 16.1072 10.1236 14.1974 8.28978 13.2515Z" fill="#403E59"/>
<path d="M65.9688 23.7471H75.3214V20.763H65.9688V23.7471Z" fill="url(#paint0_linear)"/>
<path d="M81.5452 18.0446C82.4155 18.0446 82.9434 17.656 82.9434 16.9881V16.9572C82.9434 16.2575 82.4001 15.9162 81.5611 15.9162H79.9765V18.0446H81.5452ZM76.3408 12.8711H81.6541C83.5812 12.8711 84.8084 13.3529 85.5692 14.1138C86.2219 14.7664 86.564 15.5743 86.564 16.6931V16.7237C86.564 18.3091 85.7407 19.4121 84.4203 20.0489L86.9523 23.7466H82.8043L79.9648 19.5267L79.9765 23.7466H76.3408V12.8711Z" fill="#403E59"/>
<path d="M54.8965 21.1986L59.8214 15.8545H55.0829V12.8711H65.0417V15.4193L60.1167 20.7639H65.0417V23.7461H54.8965V21.1986Z" fill="#403E59"/>
<path d="M50.4072 12.8711H54.0424V23.7461H50.4072V12.8711Z" fill="#403E59"/>
<path d="M37.1846 12.8711H40.9754L43.3062 16.6935L45.6363 12.8711H49.4269V23.7461H45.8076V18.3561L43.3062 22.2245H43.2441L40.7423 18.3561V23.7461H37.1846V12.8711Z" fill="#403E59"/>
<path d="M32.6016 12.8711H36.2372V23.7461H32.6016V12.8711Z" fill="#403E59"/>
<path d="M25.1519 15.9475H21.9512V12.8711H31.9881V15.9475H28.7874V23.7461H25.1519V15.9475Z" fill="#403E59"/>
<path d="M16.7084 18.2C17.6406 18.2 18.2622 17.7803 18.2622 17.0043V16.9734C18.2622 16.1802 17.687 15.7764 16.7238 15.7764H15.7294V18.2H16.7084ZM12.0938 12.8711H16.988C19.8779 12.8711 21.8509 14.1609 21.8509 16.7399V16.7708C21.8509 19.3968 19.8464 20.7954 16.9102 20.7954H15.7294V23.7461H12.0938V12.8711Z" fill="#403E59"/>
<path d="M65.9688 19.8H73.8004V16.817H65.9688V19.8Z" fill="url(#paint1_linear)"/>
<path d="M65.9688 15.8542H72.2791V12.8712H65.9688V15.8542Z" fill="url(#paint2_linear)"/>
<path d="M89.7506 14.5054V13.4383L89.2908 14.1368H89.2817L88.8264 13.4451V14.5054H88.4736V12.8711H88.8608L89.2908 13.5622L89.7201 12.8711H90.1078V14.5054H89.7506Z" fill="#403E59"/>
<path d="M87.8099 13.2026V14.5054H87.4506V13.2026H86.9531V12.8716H88.3073V13.2026H87.8099Z" fill="#403E59"/>
<path d="M69.4466 5.2509C70.3166 5.2509 70.8448 4.86225 70.8448 4.19436V4.16346C70.8448 3.46406 70.3012 3.12267 69.4624 3.12267H67.8779V5.2509H69.4466ZM64.2422 0.0772314H69.5553C71.4823 0.0772314 72.7095 0.559349 73.4706 1.3202C74.1235 1.97271 74.4649 2.78056 74.4649 3.89925V3.92996C74.4649 5.51511 73.6419 6.61826 72.3216 7.25507L74.8534 10.9529H70.7054L67.8665 6.73316L67.8779 10.9529H64.2422V0.0772314Z" fill="#403E59"/>
<path d="M26.2073 5.2509C27.0776 5.2509 27.6055 4.86225 27.6055 4.19436V4.16346C27.6055 3.46406 27.0622 3.12267 26.2229 3.12267H24.6384V5.2509H26.2073ZM21.0029 0.0772314H26.316C28.2431 0.0772314 29.4705 0.559349 30.2316 1.3202C30.8843 1.97271 31.2261 2.78056 31.2261 3.89925V3.92996C31.2261 5.51511 30.4026 6.61826 29.0821 7.25507L31.6139 10.9529H27.4659L24.627 6.73316L24.6384 10.9529H21.0029V0.0772314Z" fill="#403E59"/>
<path d="M34.5875 3.15358H31.3867V0.0774765H41.4232V3.15358H38.2232V10.9526H34.5875V3.15358Z" fill="#403E59"/>
<path d="M53.8682 7.96959H63.2208V10.9524H53.8682V7.96959Z" fill="url(#paint3_linear)"/>
<path d="M41.7676 0.0773249H45.1699L49.0387 4.87801V0.0773249H52.6432V10.9524H49.4114L45.3718 5.93436V10.9524H41.7676V0.0773249Z" fill="#403E59"/>
<path d="M4.61475 5.4061C5.54682 5.4061 6.16844 4.98653 6.16844 4.21014V4.17824C6.16844 3.38658 5.59329 2.98237 4.62973 2.98237H3.63576V5.4061H4.61475ZM0 0.0770931H4.89424C7.78414 0.0770931 9.75694 1.36678 9.75694 3.94565V3.97655C9.75694 6.60223 7.75268 8.00023 4.81643 8.00023H3.63576V10.9524H0V0.0770931Z" fill="#403E59"/>
<path d="M16.2508 -0.000156403H12.6462L8.06348 10.9524H11.9473L14.4174 4.27231L16.8878 10.9524H20.8338L16.2508 -0.000156403Z" fill="#403E59"/>
<path d="M16.8223 9.38574H10.6992V6.80669H16.5306L16.8223 9.38574Z" fill="#403E59"/>
<path d="M53.8672 4.02357H61.6983V7.00635H53.8672V4.02357Z" fill="url(#paint4_linear)"/>
<path d="M53.8672 0.0772207H60.1775V3.0603H53.8672V0.0772207Z" fill="url(#paint5_linear)"/>
<defs>
<linearGradient id="paint0_linear" x1="65.966" y1="22.2526" x2="75.3173" y2="22.2526" gradientUnits="userSpaceOnUse">
<stop stop-color="#BF1A2C"/>
<stop offset="0.993621" stop-color="#F46D1F"/>
<stop offset="1" stop-color="#F46D1F"/>
</linearGradient>
<linearGradient id="paint1_linear" x1="65.9697" y1="18.3078" x2="73.8023" y2="18.3078" gradientUnits="userSpaceOnUse">
<stop stop-color="#BF1A2C"/>
<stop offset="0.993621" stop-color="#F46D1F"/>
<stop offset="1" stop-color="#F46D1F"/>
</linearGradient>
<linearGradient id="paint2_linear" x1="65.9697" y1="14.3633" x2="72.2794" y2="14.3633" gradientUnits="userSpaceOnUse">
<stop stop-color="#BF1A2C"/>
<stop offset="0.993621" stop-color="#F46D1F"/>
<stop offset="1" stop-color="#F46D1F"/>
</linearGradient>
<linearGradient id="paint3_linear" x1="53.8654" y1="9.46222" x2="63.2192" y2="9.46222" gradientUnits="userSpaceOnUse">
<stop stop-color="#28468F"/>
<stop offset="0.00283196" stop-color="#28468F"/>
<stop offset="1" stop-color="#3DB497"/>
</linearGradient>
<linearGradient id="paint4_linear" x1="53.8681" y1="5.51755" x2="61.6986" y2="5.51755" gradientUnits="userSpaceOnUse">
<stop stop-color="#28468F"/>
<stop offset="0.00283196" stop-color="#28468F"/>
<stop offset="1" stop-color="#3DB497"/>
</linearGradient>
<linearGradient id="paint5_linear" x1="53.8681" y1="1.56751" x2="60.1778" y2="1.56751" gradientUnits="userSpaceOnUse">
<stop stop-color="#28468F"/>
<stop offset="0.00283196" stop-color="#28468F"/>
<stop offset="1" stop-color="#3DB497"/>
</linearGradient>
</defs>
</svg>
